<svg xmlns="http://www.w3.org/2000/svg" width="512" height="512" viewBox="0 0 512 512" version="1.1"><path d="M 358 43.584 C 347.275 45.970, 312.400 53.363, 280.500 60.012 C 184.541 80.016, 107.884 97.541, 83.778 104.987 C 74.818 107.754, 74.528 108.585, 74.525 131.500 C 74.523 148.085, 74.709 149.972, 76.892 155.500 C 78.469 159.491, 80.893 163.092, 84.131 166.253 C 86.809 168.867, 89 171.702, 89 172.553 C 89 174.531, 91.561 179.598, 94.641 183.714 L 97.047 186.928 95.311 192.818 C 94.033 197.154, 92.859 199.118, 90.860 200.265 C 78.996 207.074, 76.641 234.383, 86.563 250.099 C 90.923 257.006, 94.616 258.932, 107.454 260.993 C 122.279 263.372, 145 268.272, 145 269.088 C 145 269.434, 116.466 282.429, 81.591 297.967 C 46.716 313.505, 17.691 326.709, 17.091 327.309 C 13.908 330.492, 18.021 358.113, 23.549 370.678 C 26.380 377.114, 33.113 384.552, 37.384 385.962 C 39.693 386.724, 40.955 387.986, 41.832 390.411 C 42.505 392.273, 44.998 395.587, 47.371 397.774 C 51.671 401.738, 51.684 401.770, 51.230 407.626 C 50.899 411.898, 50.155 414.182, 48.501 416 C 44.717 420.162, 42.899 424.810, 42.313 431.825 C 41.045 446.975, 49.463 465.051, 60.425 470.720 C 66.026 473.616, 119.290 473.214, 178 469.831 C 282.858 463.791, 344.939 459.114, 436 450.396 C 445.671 449.471, 453.397 448.247, 454.666 447.440 C 458.009 445.316, 461.150 435.720, 461.747 425.804 C 462.755 409.081, 455.085 387.078, 443.136 372.416 C 439.589 368.064, 438.432 365.928, 439.073 364.916 C 440.658 362.412, 440.064 354.019, 437.955 349.118 C 436.324 345.326, 436.122 343.810, 436.955 341.617 C 439.323 335.389, 438.068 324.034, 433.816 313.214 C 432.673 310.307, 431.910 307.784, 432.119 307.608 C 432.329 307.432, 442.175 308.324, 454 309.591 C 482.341 312.628, 482.513 312.626, 485.652 309.250 C 493.044 301.299, 496.425 288.585, 495.690 271.500 C 495.091 257.572, 492.784 248.342, 487.014 236.799 L 483.165 229.099 485.083 225.338 C 487.251 221.084, 487.514 216.448, 485.893 211.036 C 484.930 207.822, 485.085 206.765, 487.083 202.920 C 490.772 195.824, 490.942 182.564, 487.527 168.290 C 485.643 160.417, 484.049 156.087, 482.172 153.747 C 472.218 141.334, 383.836 40.151, 382.500 39.638 C 380.088 38.713, 379.398 38.824, 358 43.584 M 252.299 80.403 C 185.639 95.344, 130.776 107.891, 130.382 108.284 C 129.989 108.678, 131.067 109, 132.777 109 C 134.488 109, 146.744 110.819, 160.013 113.043 L 184.138 117.086 278.319 96.075 C 399.032 69.144, 392.001 70.751, 391.995 70.079 C 391.993 69.760, 388.810 65.787, 384.923 61.250 C 379.853 55.333, 377.239 53.034, 375.677 53.119 C 374.480 53.184, 318.960 65.462, 252.299 80.403 M 307.835 102.366 C 258.519 113.440, 218.288 122.619, 218.432 122.764 C 218.576 122.908, 230.265 124.985, 244.409 127.379 L 270.123 131.731 343.156 115.438 C 383.324 106.477, 416.375 98.958, 416.603 98.730 C 416.831 98.502, 413.840 94.645, 409.956 90.158 C 404.212 83.521, 402.392 82.022, 400.197 82.116 C 398.714 82.181, 357.151 91.293, 307.835 102.366 M 365.773 123.304 C 333.472 130.532, 307.597 136.738, 308.273 137.096 C 309.892 137.953, 334.556 140.638, 354.017 142.075 L 369.535 143.221 404.517 135.485 C 423.758 131.231, 439.893 127.391, 440.373 126.952 C 441.491 125.930, 427.996 110.169, 426 110.165 C 425.175 110.164, 398.073 116.076, 365.773 123.304 M 87.387 120.592 C 87.043 121.964, 86.945 128.580, 87.169 135.293 C 87.508 145.436, 87.964 148.300, 89.870 152.234 C 92.732 158.142, 93.554 158.388, 117.500 160.490 C 207.264 168.367, 311.957 180.845, 454.060 200.600 C 466.307 202.303, 466.718 202.299, 470.560 200.423 C 473.580 198.949, 474.813 197.566, 475.842 194.500 C 477.439 189.737, 476.903 180.482, 474.470 170.810 L 472.787 164.120 467.644 162.996 C 447.914 158.685, 419.125 156.025, 392 156.007 C 341.842 155.973, 308.919 151.917, 193 131.491 C 142.399 122.575, 124.094 120.121, 96.757 118.588 C 88.097 118.103, 88.007 118.122, 87.387 120.592 M 438.230 140.801 C 432.032 142.209, 427.307 143.654, 427.730 144.012 C 428.154 144.370, 433.624 145.206, 439.887 145.870 C 446.150 146.533, 453.342 147.359, 455.869 147.706 L 460.463 148.335 455.982 143.213 C 453.517 140.395, 451.050 138.124, 450.500 138.166 C 449.950 138.208, 444.429 139.394, 438.230 140.801 M 103 172.911 C 103 176.121, 116.347 183.516, 129.233 187.447 C 157.913 196.195, 216.828 202.041, 261.784 200.599 L 282.068 199.949 295.284 204.399 C 321.308 213.162, 349.062 216.740, 382.096 215.589 C 401.498 214.913, 401.899 214.941, 422.570 218.476 C 447.408 222.724, 461.515 223.752, 468 221.787 C 472.020 220.569, 472.534 220.074, 472.819 217.140 L 473.137 213.857 468.819 214.486 C 465.978 214.900, 453.550 213.567, 432.500 210.589 C 327.064 195.675, 216.809 182.524, 126 174.028 C 100.749 171.666, 103 171.775, 103 172.911 M 107.079 198.069 C 105.538 205.252, 105.729 207.729, 108 210 C 110.375 212.375, 109.372 212.337, 129.645 210.825 C 141.935 209.908, 146.711 209.897, 149.645 210.780 C 151.765 211.417, 160.655 216.003, 169.400 220.969 C 178.145 225.936, 186.245 229.993, 187.400 229.985 C 188.555 229.977, 193.037 228.871, 197.361 227.528 C 210.472 223.456, 223.821 221.661, 236.388 222.282 C 252.214 223.065, 256.331 224.594, 266.017 233.285 C 276.077 242.314, 284.626 247.573, 291.592 249.019 C 294.634 249.651, 303.646 250.016, 312.245 249.858 C 330.237 249.525, 331.228 249.853, 345.142 260.739 C 362.761 274.523, 381.627 283.728, 398.077 286.567 C 422.491 290.780, 441.334 281.110, 454.464 257.630 C 458.005 251.300, 463 239.005, 463 236.623 C 463 235.619, 459.985 235.144, 450.750 234.694 C 444.012 234.366, 429.725 232.587, 419 230.742 C 400.683 227.590, 398.711 227.435, 386.500 228.191 C 354.586 230.165, 320.649 226.049, 291.772 216.701 L 278.500 212.405 264.500 213.060 C 256.800 213.420, 239.700 213.331, 226.500 212.862 C 175.220 211.042, 135.237 204.680, 111.829 194.617 L 108.157 193.039 107.079 198.069 M 94.659 216.445 C 92.960 220.875, 92.847 228.860, 94.397 235.036 C 96.545 243.596, 99.618 246.481, 107.618 247.448 C 110.853 247.839, 120.925 249.723, 130 251.636 C 167.131 259.461, 168.436 259.668, 264.500 273 C 296.056 277.379, 356.357 284.976, 356.715 284.618 C 356.922 284.412, 354.962 282.996, 352.362 281.472 C 349.761 279.948, 342.878 275.074, 337.066 270.642 L 326.500 262.583 308 262.490 C 291.530 262.407, 288.851 262.155, 283.581 260.194 C 275.796 257.297, 269.222 253.017, 259.676 244.632 C 254.447 240.039, 250.332 237.302, 247.267 236.380 C 236.912 233.263, 212.585 235.466, 196.592 240.968 C 186.060 244.592, 184.528 244.204, 164.574 232.874 C 144.390 221.413, 146.447 221.861, 123.913 224.008 C 118.193 224.553, 111.935 224.714, 110.006 224.364 C 104.942 223.448, 99.515 220.478, 97.270 217.396 C 95.573 215.067, 95.236 214.944, 94.659 216.445 M 473.084 247.112 C 471.126 253.650, 462.892 268.992, 457.771 275.648 C 452.948 281.916, 446.113 288.162, 440.085 291.812 C 436.741 293.836, 436.720 293.890, 439.085 294.390 C 441.883 294.981, 472.500 298, 475.702 298 C 477.396 298, 478.338 296.772, 480.113 292.250 C 481.989 287.472, 482.372 284.556, 482.380 275 C 482.385 268.675, 481.834 261.475, 481.154 259 C 479.167 251.764, 475.816 243, 475.036 243 C 474.640 243, 473.762 244.851, 473.084 247.112 M 118.822 295.284 C 91.499 307.490, 69.271 317.604, 69.426 317.759 C 69.581 317.914, 81.776 317.614, 96.527 317.092 L 123.345 316.142 165.592 297.324 C 188.828 286.974, 207.726 278.393, 207.587 278.254 C 207.231 277.898, 171.821 272.992, 170 273.046 C 169.175 273.071, 146.145 283.078, 118.822 295.284 M 196 297.559 C 177.025 306.035, 160.600 313.417, 159.500 313.963 C 158.154 314.632, 165.997 314.763, 183.500 314.366 L 209.500 313.775 239.246 300.638 C 255.607 293.412, 268.994 287.256, 268.996 286.958 C 269.001 286.325, 236.695 281.929, 233 282.059 C 231.625 282.108, 214.975 289.083, 196 297.559 M 270.746 300.405 C 258.232 306.053, 247.797 310.870, 247.557 311.110 C 245.955 312.712, 293.628 307.573, 311 304.271 C 342.334 298.316, 347.424 297.216, 346 296.710 C 344.474 296.169, 296.148 289.944, 294.436 290.068 C 293.921 290.106, 283.261 294.757, 270.746 300.405 M 381.500 306.122 C 367.381 307.318, 344.865 310.630, 330.629 313.604 C 309.359 318.048, 292.914 320.765, 277.500 322.383 C 246.963 325.589, 239.700 325.904, 125 329.013 C 103.825 329.587, 80.200 330.515, 72.500 331.074 C 59.925 331.989, 30.003 335.751, 29.169 336.523 C 28.986 336.692, 29.370 340.346, 30.022 344.643 C 32.379 360.196, 36.927 370.643, 42.432 373.151 C 44.044 373.886, 54.013 373.179, 78.579 370.588 C 177.893 360.116, 267.960 352.828, 389 345.473 C 403.025 344.620, 415.997 343.444, 417.827 342.858 C 421.756 341.602, 424.991 336.862, 424.996 332.355 C 425.001 328.626, 421.555 317.034, 418.878 311.771 C 416.042 306.197, 412.806 304.976, 401.300 305.137 C 395.910 305.213, 387 305.656, 381.500 306.122 M 419.500 355.543 C 417.160 356.299, 397.242 357.929, 371.500 359.473 C 284.250 364.703, 196.737 371.581, 116.347 379.525 C 80.222 383.095, 54.731 385.936, 54.216 386.451 C 53.364 387.303, 60.563 391.053, 66.772 392.991 C 85.485 398.832, 126.852 397.838, 175 390.391 C 195.135 387.277, 212.376 383.820, 225 380.367 L 234.500 377.767 247.599 379.511 C 257.962 380.890, 265.066 381.145, 281.599 380.731 C 304.621 380.155, 316.594 378.498, 340.707 372.552 C 354.013 369.271, 356.518 368.984, 380.207 368.020 C 405.328 366.998, 415.768 365.627, 422.403 362.479 C 426.232 360.662, 427.127 359.202, 426.315 356.096 C 425.702 353.751, 425.182 353.709, 419.500 355.543 M 414 378.052 C 408.640 379.350, 384.917 380.991, 371.447 380.996 C 361.069 380.999, 357.420 381.485, 345.172 384.492 C 314.741 391.964, 292.671 394.603, 268.130 393.703 C 259.533 393.387, 248.663 392.582, 243.974 391.913 C 235.910 390.762, 234.906 390.836, 225.474 393.281 C 205.974 398.334, 176.159 403.609, 150.962 406.464 C 121.103 409.846, 83.980 410.143, 71 407.103 C 63.883 405.436, 64 405.350, 64 412.277 C 64 424.432, 66.728 425.205, 87.744 419 C 95.566 416.691, 103.390 415, 106.255 415 C 109.596 415, 117.273 416.961, 129.739 420.998 L 148.261 426.996 155.380 423.082 C 173.491 413.126, 190.697 408.018, 206.163 408.007 C 215.317 408, 216.158 408.183, 222.163 411.476 C 225.648 413.388, 232.325 416.876, 237 419.226 C 245.402 423.451, 245.621 423.500, 256 423.488 C 264.271 423.479, 268.662 422.895, 276.684 420.738 C 282.285 419.232, 288.562 418, 290.632 418 C 293.177 418, 298.781 420.069, 307.947 424.393 C 332.853 436.141, 350.659 440.676, 368 439.686 C 387.344 438.583, 400.843 430.511, 410.119 414.500 C 413.647 408.412, 418.540 393.489, 419.465 386 C 419.839 382.975, 420.367 379.712, 420.640 378.750 C 421.192 376.797, 419.790 376.650, 414 378.052 M 432.494 385.548 C 429.946 403.846, 421.999 422.360, 412.021 433.241 C 406.228 439.558, 406.017 439.953, 408.670 439.516 C 410.226 439.259, 419.150 438.324, 428.500 437.437 C 437.850 436.550, 445.831 435.511, 446.235 435.127 C 447.686 433.750, 449.069 423.402, 448.457 418.500 C 446.979 406.665, 443.193 396.241, 436.671 386.048 L 433.183 380.596 432.494 385.548 M 197.500 421.051 C 188.221 422.475, 176.600 426.642, 164 433.063 C 157.675 436.286, 151.334 439.196, 149.909 439.530 C 148.146 439.943, 140.806 438.010, 126.958 433.486 L 106.598 426.836 90.526 431.418 C 81.687 433.938, 72.534 436, 70.187 436 C 66.097 436, 58.822 433.139, 57.509 431.014 C 54.399 425.982, 54.441 438.232, 57.566 447.295 C 58.475 449.932, 60.685 453.644, 62.477 455.545 L 65.736 459 101.433 459 C 124.002 459, 144.002 458.453, 155.815 457.512 C 166.092 456.693, 197.450 454.670, 225.500 453.016 C 294.493 448.947, 326.151 446.721, 325.251 446.001 C 324.838 445.670, 321.800 444.344, 318.500 443.054 C 315.200 441.764, 308.102 438.524, 302.727 435.854 C 297.352 433.184, 291.717 431, 290.204 431 C 288.692 431, 282.964 432.193, 277.477 433.652 C 269.559 435.757, 265.127 436.317, 256 436.366 C 245.750 436.421, 243.739 436.130, 237.500 433.688 C 233.650 432.181, 226.759 428.674, 222.186 425.895 C 212.936 420.274, 208.386 419.381, 197.500 421.051" stroke="none" fill="#060504" fill-rule="evenodd"/><path d="M 252.299 80.403 C 185.639 95.344, 130.776 107.891, 130.382 108.284 C 129.989 108.678, 131.067 109, 132.777 109 C 134.488 109, 146.744 110.819, 160.013 113.043 L 184.138 117.086 278.319 96.075 C 399.032 69.144, 392.001 70.751, 391.995 70.079 C 391.993 69.760, 388.810 65.787, 384.923 61.250 C 379.853 55.333, 377.239 53.034, 375.677 53.119 C 374.480 53.184, 318.960 65.462, 252.299 80.403 M 307.835 102.366 C 258.519 113.440, 218.288 122.619, 218.432 122.764 C 218.576 122.908, 230.265 124.985, 244.409 127.379 L 270.123 131.731 343.156 115.438 C 383.324 106.477, 416.375 98.958, 416.603 98.730 C 416.831 98.502, 413.840 94.645, 409.956 90.158 C 404.212 83.521, 402.392 82.022, 400.197 82.116 C 398.714 82.181, 357.151 91.293, 307.835 102.366 M 365.773 123.304 C 333.472 130.532, 307.597 136.738, 308.273 137.096 C 309.892 137.953, 334.556 140.638, 354.017 142.075 L 369.535 143.221 404.517 135.485 C 423.758 131.231, 439.893 127.391, 440.373 126.952 C 441.491 125.930, 427.996 110.169, 426 110.165 C 425.175 110.164, 398.073 116.076, 365.773 123.304 M 87.387 120.592 C 87.043 121.964, 86.945 128.580, 87.169 135.293 C 87.508 145.436, 87.964 148.300, 89.870 152.234 C 92.732 158.142, 93.554 158.388, 117.500 160.490 C 207.264 168.367, 311.957 180.845, 454.060 200.600 C 466.307 202.303, 466.718 202.299, 470.560 200.423 C 473.580 198.949, 474.813 197.566, 475.842 194.500 C 477.439 189.737, 476.903 180.482, 474.470 170.810 L 472.787 164.120 467.644 162.996 C 447.914 158.685, 419.125 156.025, 392 156.007 C 341.842 155.973, 308.919 151.917, 193 131.491 C 142.399 122.575, 124.094 120.121, 96.757 118.588 C 88.097 118.103, 88.007 118.122, 87.387 120.592 M 438.230 140.801 C 432.032 142.209, 427.307 143.654, 427.730 144.012 C 428.154 144.370, 433.624 145.206, 439.887 145.870 C 446.150 146.533, 453.342 147.359, 455.869 147.706 L 460.463 148.335 455.982 143.213 C 453.517 140.395, 451.050 138.124, 450.500 138.166 C 449.950 138.208, 444.429 139.394, 438.230 140.801 M 103 172.911 C 103 176.121, 116.347 183.516, 129.233 187.447 C 157.913 196.195, 216.828 202.041, 261.784 200.599 L 282.068 199.949 295.284 204.399 C 321.308 213.162, 349.062 216.740, 382.096 215.589 C 401.498 214.913, 401.899 214.941, 422.570 218.476 C 447.408 222.724, 461.515 223.752, 468 221.787 C 472.020 220.569, 472.534 220.074, 472.819 217.140 L 473.137 213.857 468.819 214.486 C 465.978 214.900, 453.550 213.567, 432.500 210.589 C 327.064 195.675, 216.809 182.524, 126 174.028 C 100.749 171.666, 103 171.775, 103 172.911 M 107.079 198.069 C 105.538 205.252, 105.729 207.729, 108 210 C 110.375 212.375, 109.372 212.337, 129.645 210.825 C 141.935 209.908, 146.711 209.897, 149.645 210.780 C 151.765 211.417, 160.655 216.003, 169.400 220.969 C 178.145 225.936, 186.245 229.993, 187.400 229.985 C 188.555 229.977, 193.037 228.871, 197.361 227.528 C 210.472 223.456, 223.821 221.661, 236.388 222.282 C 252.214 223.065, 256.331 224.594, 266.017 233.285 C 276.077 242.314, 284.626 247.573, 291.592 249.019 C 294.634 249.651, 303.646 250.016, 312.245 249.858 C 330.237 249.525, 331.228 249.853, 345.142 260.739 C 362.761 274.523, 381.627 283.728, 398.077 286.567 C 422.491 290.780, 441.334 281.110, 454.464 257.630 C 458.005 251.300, 463 239.005, 463 236.623 C 463 235.619, 459.985 235.144, 450.750 234.694 C 444.012 234.366, 429.725 232.587, 419 230.742 C 400.683 227.590, 398.711 227.435, 386.500 228.191 C 354.586 230.165, 320.649 226.049, 291.772 216.701 L 278.500 212.405 264.500 213.060 C 256.800 213.420, 239.700 213.331, 226.500 212.862 C 175.220 211.042, 135.237 204.680, 111.829 194.617 L 108.157 193.039 107.079 198.069 M 94.659 216.445 C 92.960 220.875, 92.847 228.860, 94.397 235.036 C 96.545 243.596, 99.618 246.481, 107.618 247.448 C 110.853 247.839, 120.925 249.723, 130 251.636 C 167.131 259.461, 168.436 259.668, 264.500 273 C 296.056 277.379, 356.357 284.976, 356.715 284.618 C 356.922 284.412, 354.962 282.996, 352.362 281.472 C 349.761 279.948, 342.878 275.074, 337.066 270.642 L 326.500 262.583 308 262.490 C 291.530 262.407, 288.851 262.155, 283.581 260.194 C 275.796 257.297, 269.222 253.017, 259.676 244.632 C 254.447 240.039, 250.332 237.302, 247.267 236.380 C 236.912 233.263, 212.585 235.466, 196.592 240.968 C 186.060 244.592, 184.528 244.204, 164.574 232.874 C 144.390 221.413, 146.447 221.861, 123.913 224.008 C 118.193 224.553, 111.935 224.714, 110.006 224.364 C 104.942 223.448, 99.515 220.478, 97.270 217.396 C 95.573 215.067, 95.236 214.944, 94.659 216.445 M 473.084 247.112 C 471.126 253.650, 462.892 268.992, 457.771 275.648 C 452.948 281.916, 446.113 288.162, 440.085 291.812 C 436.741 293.836, 436.720 293.890, 439.085 294.390 C 441.883 294.981, 472.500 298, 475.702 298 C 477.396 298, 478.338 296.772, 480.113 292.250 C 481.989 287.472, 482.372 284.556, 482.380 275 C 482.385 268.675, 481.834 261.475, 481.154 259 C 479.167 251.764, 475.816 243, 475.036 243 C 474.640 243, 473.762 244.851, 473.084 247.112 M 118.822 295.284 C 91.499 307.490, 69.271 317.604, 69.426 317.759 C 69.581 317.914, 81.776 317.614, 96.527 317.092 L 123.345 316.142 165.592 297.324 C 188.828 286.974, 207.726 278.393, 207.587 278.254 C 207.231 277.898, 171.821 272.992, 170 273.046 C 169.175 273.071, 146.145 283.078, 118.822 295.284 M 196 297.559 C 177.025 306.035, 160.600 313.417, 159.500 313.963 C 158.154 314.632, 165.997 314.763, 183.500 314.366 L 209.500 313.775 239.246 300.638 C 255.607 293.412, 268.994 287.256, 268.996 286.958 C 269.001 286.325, 236.695 281.929, 233 282.059 C 231.625 282.108, 214.975 289.083, 196 297.559 M 270.746 300.405 C 258.232 306.053, 247.797 310.870, 247.557 311.110 C 245.955 312.712, 293.628 307.573, 311 304.271 C 342.334 298.316, 347.424 297.216, 346 296.710 C 344.474 296.169, 296.148 289.944, 294.436 290.068 C 293.921 290.106, 283.261 294.757, 270.746 300.405 M 381.500 306.122 C 367.381 307.318, 344.865 310.630, 330.629 313.604 C 309.359 318.048, 292.914 320.765, 277.500 322.383 C 246.963 325.589, 239.700 325.904, 125 329.013 C 103.825 329.587, 80.200 330.515, 72.500 331.074 C 59.925 331.989, 30.003 335.751, 29.169 336.523 C 28.986 336.692, 29.370 340.346, 30.022 344.643 C 32.379 360.196, 36.927 370.643, 42.432 373.151 C 44.044 373.886, 54.013 373.179, 78.579 370.588 C 177.893 360.116, 267.960 352.828, 389 345.473 C 403.025 344.620, 415.997 343.444, 417.827 342.858 C 421.756 341.602, 424.991 336.862, 424.996 332.355 C 425.001 328.626, 421.555 317.034, 418.878 311.771 C 416.042 306.197, 412.806 304.976, 401.300 305.137 C 395.910 305.213, 387 305.656, 381.500 306.122 M 419.500 355.543 C 417.160 356.299, 397.242 357.929, 371.500 359.473 C 284.250 364.703, 196.737 371.581, 116.347 379.525 C 80.222 383.095, 54.731 385.936, 54.216 386.451 C 53.364 387.303, 60.563 391.053, 66.772 392.991 C 85.485 398.832, 126.852 397.838, 175 390.391 C 195.135 387.277, 212.376 383.820, 225 380.367 L 234.500 377.767 247.599 379.511 C 257.962 380.890, 265.066 381.145, 281.599 380.731 C 304.621 380.155, 316.594 378.498, 340.707 372.552 C 354.013 369.271, 356.518 368.984, 380.207 368.020 C 405.328 366.998, 415.768 365.627, 422.403 362.479 C 426.232 360.662, 427.127 359.202, 426.315 356.096 C 425.702 353.751, 425.182 353.709, 419.500 355.543 M 414 378.052 C 408.640 379.350, 384.917 380.991, 371.447 380.996 C 361.069 380.999, 357.420 381.485, 345.172 384.492 C 314.741 391.964, 292.671 394.603, 268.130 393.703 C 259.533 393.387, 248.663 392.582, 243.974 391.913 C 235.910 390.762, 234.906 390.836, 225.474 393.281 C 205.974 398.334, 176.159 403.609, 150.962 406.464 C 121.103 409.846, 83.980 410.143, 71 407.103 C 63.883 405.436, 64 405.350, 64 412.277 C 64 424.432, 66.728 425.205, 87.744 419 C 95.566 416.691, 103.390 415, 106.255 415 C 109.596 415, 117.273 416.961, 129.739 420.998 L 148.261 426.996 155.380 423.082 C 173.491 413.126, 190.697 408.018, 206.163 408.007 C 215.317 408, 216.158 408.183, 222.163 411.476 C 225.648 413.388, 232.325 416.876, 237 419.226 C 245.402 423.451, 245.621 423.500, 256 423.488 C 264.271 423.479, 268.662 422.895, 276.684 420.738 C 282.285 419.232, 288.562 418, 290.632 418 C 293.177 418, 298.781 420.069, 307.947 424.393 C 332.853 436.141, 350.659 440.676, 368 439.686 C 387.344 438.583, 400.843 430.511, 410.119 414.500 C 413.647 408.412, 418.540 393.489, 419.465 386 C 419.839 382.975, 420.367 379.712, 420.640 378.750 C 421.192 376.797, 419.790 376.650, 414 378.052 M 432.494 385.548 C 429.946 403.846, 421.999 422.360, 412.021 433.241 C 406.228 439.558, 406.017 439.953, 408.670 439.516 C 410.226 439.259, 419.150 438.324, 428.500 437.437 C 437.850 436.550, 445.831 435.511, 446.235 435.127 C 447.686 433.750, 449.069 423.402, 448.457 418.500 C 446.979 406.665, 443.193 396.241, 436.671 386.048 L 433.183 380.596 432.494 385.548 M 197.500 421.051 C 188.221 422.475, 176.600 426.642, 164 433.063 C 157.675 436.286, 151.334 439.196, 149.909 439.530 C 148.146 439.943, 140.806 438.010, 126.958 433.486 L 106.598 426.836 90.526 431.418 C 81.687 433.938, 72.534 436, 70.187 436 C 66.097 436, 58.822 433.139, 57.509 431.014 C 54.399 425.982, 54.441 438.232, 57.566 447.295 C 58.475 449.932, 60.685 453.644, 62.477 455.545 L 65.736 459 101.433 459 C 124.002 459, 144.002 458.453, 155.815 457.512 C 166.092 456.693, 197.450 454.670, 225.500 453.016 C 294.493 448.947, 326.151 446.721, 325.251 446.001 C 324.838 445.670, 321.800 444.344, 318.500 443.054 C 315.200 441.764, 308.102 438.524, 302.727 435.854 C 297.352 433.184, 291.717 431, 290.204 431 C 288.692 431, 282.964 432.193, 277.477 433.652 C 269.559 435.757, 265.127 436.317, 256 436.366 C 245.750 436.421, 243.739 436.130, 237.500 433.688 C 233.650 432.181, 226.759 428.674, 222.186 425.895 C 212.936 420.274, 208.386 419.381, 197.500 421.051" stroke="none" fill="#cf983d" fill-rule="evenodd"/></svg>